<?xml version="1.0" encoding="utf-8"?>
<!-- Generator: Adobe Illustrator 19.1.0, SVG Export Plug-In . SVG Version: 6.00 Build 0)  -->
<svg version="1.1" id="Layer_1" xmlns="http://www.w3.org/2000/svg" xmlns:xlink="http://www.w3.org/1999/xlink" x="0px" y="0px"
	 width="760px" height="459.2px" viewBox="73 158.8 760 459.2" style="enable-background:new 73 158.8 760 459.2;"
	 xml:space="preserve">
<style type="text/css">
	.st0{fill:#3F4B63;}
	.st1{fill:#F7D781;}
</style>
<g>
	<g id="XMLID_3_">
		<g id="XMLID_4_">
			<path id="XMLID_13_" class="st0" d="M313.3,269.3v11h-23.4v9.4h19v11h-19v10.6h25v11H277v-53.2h36.3V269.3z"/>
			<path id="XMLID_12_" class="st0" d="M444.5,283.7c0,9.2,29.3,2.8,29.3,23c0,11.1-10.9,16.6-20.6,16.6s-16.6-3-22.2-6.5l8.4-9.2
				c3.4,2.5,8.5,4.7,13,4.7c4.3,0,8.5-1.9,8.5-5.3c0-9.9-28.4-2.1-28.4-22.6c0-10.4,8.9-15.7,20.1-15.7c8.3,0,16.1,3.9,19,6
				l-7.7,8.2c-3.2-2-7.9-3.1-11.5-3.1C447.5,279.7,444.5,281.3,444.5,283.7z"/>
			<path id="XMLID_11_" class="st0" d="M547.4,269.3v11H524v9.4h19v11h-19v10.6h25v11h-37.9v-53.2h36.3V269.3z"/>
			<path id="XMLID_10_" class="st0" d="M586.9,322.5v-53.2h12.9v42.2h22.7v11H586.9z"/>
			<path id="XMLID_9_" class="st0" d="M672,322.5h-12.9v-53.2H672V322.5z"/>
			<path id="XMLID_8_" class="st0" d="M742.8,311.5h-17.2l-3.8,11h-12.9l20.3-53.2h10.2l20.1,53.2h-13L742.8,311.5z M729.1,301.5
				h10.2l-5.1-14.6L729.1,301.5z"/>
			<path id="XMLID_7_" class="st0" d="M803.7,283.7c0,9.2,29.3,2.8,29.3,23c0,11.1-10.9,16.6-20.6,16.6c-9.7,0-16.6-3-22.2-6.5
				l8.4-9.2c3.4,2.5,8.5,4.7,13,4.7c4.3,0,8.5-1.9,8.5-5.3c0-9.9-28.4-2.1-28.4-22.6c0-10.4,8.9-15.7,20.1-15.7c8.3,0,16.1,3.9,19,6
				l-7.7,8.2c-3.2-2-7.9-3.1-11.5-3.1C806.7,279.7,803.7,281.3,803.7,283.7z"/>
			<polygon id="XMLID_6_" class="st0" points="228.9,322.5 244.2,322.5 222.7,290.3 243.7,269.3 227.7,269.3 206.3,290.7 
				206.3,269.3 193.5,269.3 193.5,322.5 206.3,322.5 206.3,306.7 213.9,299 			"/>
			<polygon id="XMLID_5_" class="st0" points="388.2,322.5 403.5,322.5 382,290.3 403,269.3 387,269.3 365.6,290.7 365.6,269.3 
				352.8,269.3 352.8,322.5 365.6,322.5 365.6,306.7 373.3,299 			"/>
		</g>
	</g>
	<polygon id="XMLID_2_" class="st1" points="501.3,163 493.3,163 396.5,259.8 412.4,259.8 501.3,170.9 	"/>
	<polygon id="XMLID_1_" class="st1" points="-501.2,1174.7 342.7,329.5 342.7,313.6 -517.2,1174.7 	"/>
</g>
</svg>
